# xmcd CD database file
#
# Track frame offsets:
#	150
#	21070
#	42852
#	61485
#	83220
#	100775
#	120267
#	139592
#	159952
#	170370
#	182980
#	207522
#	227867
#
# Disc length: 3133 seconds
#
# Revision: 1
# Processed by: cddbd v1.5.2PL0 Copyright (c) Steve Scherf et al.
# Submitted via: CDex 1.70beta3
#
DISCID=a40c3b0d
DTITLE=Street Talk - Collaboration
DYEAR=1997
DGENRE=Melodic Hard Rock
TTITLE0=Walk Away From Love
TTITLE1=If You Say It's Over
TTITLE2=Standing In The Rain
TTITLE3=Brand New Start
TTITLE4=Among Friend
TTITLE5=Could You Be The Only One
TTITLE6=Where Does Love Go
TTITLE7=In The Eyes Of A Woman
TTITLE8=If You Say It's Over (Acoustic)
TTITLE9=Borrowed Time
TTITLE10=Separate Ways (World Apart)
TTITLE11=Conclusion
TTITLE12=(deta)
EXTD=YEAR: 1997
EXTT0=
EXTT1=
EXTT2=
EXTT3=
EXTT4=
EXTT5=
EXTT6=
EXTT7=
EXTT8=
EXTT9=
EXTT10=
EXTT11=
EXTT12=
PLAYORDER=
